# xmcd
#
# Track frame offsets:
#	150
#	11531
#	33106
#	52928
#	68227
#	84449
#	97429
#	113742
#	128266
#	157634
#
# Disc length: 2405 seconds
#
# Revision: 0
# Processed by: cddbd v1.5.1PL2 Copyright (c) Steve Scherf et al.
# Submitted via: dBpowerAMP V4.0
#
DISCID=6a09630a
DTITLE=Tom Feldman - Driven to My Knees
DYEAR=2005
DGENRE=Blues
TTITLE0=Friend In Jesus
TTITLE1=Holy Living Lord
TTITLE2=Freedom
TTITLE3=Johnny Cash
TTITLE4=Angels Cry Holy
TTITLE5=Rise Again Today
TTITLE6=Narrow Is The Road
TTITLE7=Not Forgotten
TTITLE8=7 Trumpets Sound
TTITLE9=Glory
EXTD=
EXTT0=
EXTT1=
EXTT2=
EXTT3=
EXTT4=
EXTT5=
EXTT6=
EXTT7=
EXTT8=
EXTT9=
PLAYORDER=
